<svg width="240" height="240" viewBox="0 0 240 240" fill="none"
    xmlns="http://www.w3.org/2000/svg">
    <path d="M175.33 140.515C181.143 166.422 174.745 186.147 162.471 199.4C150.181 212.67 131.954 219.5 114.037 219.5C96.1725 219.5 78.4269 210.034 67.016 195.416C55.6136 180.809 50.56 161.089 58.0205 140.577C61.7616 130.29 67.7512 120.459 74.5973 110.776C78.6508 105.043 82.9853 99.3881 87.3261 93.7246C90.3294 89.8062 93.3357 85.8838 96.2541 81.9291C109.48 64.0057 120.794 45.5563 120.888 24.7292C122.775 31.148 125.888 38.1885 129.699 45.6749C133.722 53.5808 138.539 62.0117 143.536 70.7591C144.438 72.3395 145.347 73.9303 146.258 75.5301C158.179 96.4637 170.495 118.964 175.33 140.515Z" fill="currentColor" stroke="color"/>
</svg>
