<svg width="240" height="240" viewBox="0 0 240 240" fill="none"
    xmlns="http://www.w3.org/2000/svg">
    <path d="M120 22L138.594 57.94L174.064 37.5572L169.879 77.6436L210.963 79.2893L185.328 110.795L218.982 133.947L180.036 146.869L195.575 184.176L155.682 174.412L148.173 214.03L120 184.68L91.8267 214.03L84.3177 174.412L44.425 184.176L59.9643 146.869L21.0179 133.947L54.6718 110.795L29.0368 79.2893L70.1205 77.6436L65.9359 37.5572L101.406 57.94L120 22Z" fill="currentColor"/>
    <path d="M101 136C103.215 153.395 139.603 153.271 142 136" stroke="current" stroke-width="10" stroke-linecap="round"/>
    <path d="M106.977 101.398C102 85 85.2359 91.4169 83.5705 100.649" stroke="current" stroke-width="10" stroke-linecap="round"/>
    <path d="M158.406 101.484C153.43 85.0859 136.666 91.5029 135 100.735" stroke="current" stroke-width="10" stroke-linecap="round"/>
</svg>
