<svg width="240" height="240" viewBox="0 0 240 240" fill="none"
    xmlns="http://www.w3.org/2000/svg">
    <path d="M76.2696 210.931C64.4596 205.189 53.8964 197.176 45.1831 187.351C36.4698 177.526 29.777 166.081 25.4868 153.669C21.1967 141.257 19.3932 128.122 20.1794 115.014C20.9655 101.905 24.3259 89.0795 30.0687 77.2696C35.8114 65.4596 43.8241 54.8964 53.6492 46.1831C63.4743 37.4698 74.9194 30.777 87.3311 26.4868C99.7427 22.1967 112.878 20.3932 125.986 21.1794C139.095 21.9655 151.921 25.3259 163.73 31.0687L145 44V64L116.5 82L106.5 125.5L81 144.5L87.3311 187.351L76.2696 210.931Z" fill="currentColor"/>
    <path d="M191.986 51.6089C206.226 66.5903 215.474 85.616 218.457 106.069C221.441 126.521 218.013 147.396 208.647 165.821C199.28 184.246 184.434 199.315 166.151 208.957C147.869 218.598 127.048 222.338 106.553 219.661L102 193.5L110.591 151.5L130 147.5L134.498 126L141 99.5L166.151 91.5L172.907 60.5L191.986 51.6089Z" fill="currentColor"/>
</svg>
